<svg width="25" height="24" fill="none" xmlns="http://www.w3.org/2000/svg"><path d="M5.468 3.041c2.354-.96 5.1-.35 6.999 1.41 1.898-1.75 4.656-2.37 7.01-1.41 2.334.95 3.82 3.28 3.766 5.77-.042 1.89-.88 3.46-1.878 4.82-2.216 3.01-5.334 5.32-8.272 7.35l-.626.43-.625-.43c-2.949-2.03-6.035-4.34-8.241-7.35-1.019-1.36-1.856-2.93-1.899-4.82-.053-2.49 1.433-4.82 3.766-5.77zm3.539 5.86c-.657 0-1.19.873-1.19 1.95s.533 1.95 1.19 1.95c.657 0 1.19-.873 1.19-1.95s-.533-1.95-1.19-1.95zm6.931 0c-.657 0-1.189.873-1.189 1.95s.532 1.95 1.19 1.95c.657 0 1.19-.873 1.19-1.95s-.533-1.95-1.19-1.95z" fill="#000"/></svg>