<svg width="25" height="24" fill="none" xmlns="http://www.w3.org/2000/svg"><path fill-rule="evenodd" clip-rule="evenodd" d="M12.471 1.44c5.832 0 10.56 4.728 10.56 10.56 0 5.832-4.727 10.56-10.56 10.56-5.832 0-10.56-4.728-10.56-10.56 0-5.832 4.728-10.56 10.56-10.56zm0 1.724a8.836 8.836 0 0 0-6.565 14.75 8.655 8.655 0 0 1 6.564-3.005 8.656 8.656 0 0 1 6.566 3.006 8.836 8.836 0 0 0-6.565-14.75z" fill="#000"/><path fill-rule="evenodd" clip-rule="evenodd" d="M12.471 5.75a4.095 4.095 0 1 1 0 8.19 4.095 4.095 0 0 1 0-8.19z" fill="#000"/></svg>