<svg width="25" height="24" fill="none" xmlns="http://www.w3.org/2000/svg"><path d="M15.459 14.886a6.969 6.969 0 1 0-9.955-9.754 6.969 6.969 0 0 0 9.955 9.754h0zm0 0 5.973 6.074" stroke="#000" stroke-width="2" stroke-linecap="round"/><path d="m22.636 2.548.24.09c.103.037.103.182 0 .22l-.24.09a3.78 3.78 0 0 0-2.231 2.232l-.09.24c-.037.102-.182.102-.22 0l-.09-.24a3.78 3.78 0 0 0-2.232-2.232l-.24-.09c-.102-.036-.102-.181 0-.22l.24-.09A3.78 3.78 0 0 0 20.005.317l.09-.24c.036-.103.181-.103.22 0l.09.24a3.78 3.78 0 0 0 2.231 2.231z" fill="#000"/></svg>